<svg xmlns="http://www.w3.org/2000/svg" width="429" height="81.16216216216218" viewBox="0 0 370 70.00000000000001" class="looka-1j8o68f"><defs id="SvgjsDefs4069"/><g id="SvgjsG4070" featurekey="symbolFeature-0" transform="matrix(0.8750000000000001,0,0,0.8750000000000001,-8.750000000000002,-8.750000000000002)" fill="#ff5722"><path xmlns="http://www.w3.org/2000/svg" d="M35,65.833c0-8.587,3.535-16.36,9.219-21.956c-3.063-1.406-6.458-2.21-10.052-2.21C20.82,41.667,10,52.487,10,65.833  C10,79.18,20.82,90,34.167,90c3.594,0,6.988-0.804,10.052-2.21C38.535,82.194,35,74.421,35,65.833z"/><path xmlns="http://www.w3.org/2000/svg" d="M65.833,65c-8.587,0-16.36-3.535-21.956-9.222c-1.406,3.066-2.21,6.461-2.21,10.055C41.667,79.18,52.487,90,65.833,90  C79.18,90,90,79.18,90,65.833c0-3.594-0.804-6.988-2.21-10.055C82.194,61.465,74.421,65,65.833,65z"/><path xmlns="http://www.w3.org/2000/svg" d="M65.833,10c-3.594,0-6.988,0.804-10.055,2.21C61.465,17.806,65,25.579,65,34.167c0,8.587-3.535,16.36-9.222,21.956  c3.066,1.406,6.461,2.21,10.055,2.21C79.18,58.333,90,47.513,90,34.167C90,20.82,79.18,10,65.833,10z"/><path xmlns="http://www.w3.org/2000/svg" d="M34.167,35c8.587,0,16.36,3.535,21.956,9.219c1.406-3.063,2.21-6.458,2.21-10.052C58.333,20.82,47.513,10,34.167,10  C20.82,10,10,20.82,10,34.167c0,3.594,0.804,6.988,2.21,10.052C17.806,38.535,25.579,35,34.167,35z"/></g><g id="SvgjsG4071" featurekey="nameFeature-0" transform="matrix(1.1225953851681387,0,0,1.1225953851681387,88.24875153102073,6.789014072512982)" fill="#eeeeee"><path d="M18 15.719999999999999 q-0.52 -0.08 -0.86 -0.48 t-0.34 -0.92 l0 -2.92 q0 -0.68 0.48 -1.08 t1.12 -0.32 q3.44 0.56 6.12 2.44 q3.48 2.52 4.92 6.68 q0.24 0.68 -0.16 1.28 t-1.16 0.6 l-3.2 0 q-0.44 0 -0.8 -0.22 t-0.52 -0.62 q-0.88 -2.08 -2.68 -3.32 q-1.4 -0.88 -2.92 -1.12 z M28.12 29 q0.76 0 1.16 0.6 t0.16 1.28 q-1.44 4.16 -4.92 6.68 q-2.68 1.88 -6.12 2.44 l-0.2 0 q-0.56 0 -0.92 -0.36 q-0.48 -0.36 -0.48 -1.04 l0 -2.92 q0 -0.52 0.32 -0.92 t0.84 -0.48 q1.68 -0.24 2.96 -1.12 q1.8 -1.24 2.68 -3.32 q0.16 -0.4 0.52 -0.62 t0.8 -0.22 l3.2 0 z M13.8 10.48 q0.52 0.4 0.52 1.08 l0 3.12 q0 0.44 -0.3 0.82 t-0.74 0.54 q-0.56 0.12 -0.88 0.28 q-1.6 0.72 -2.72 1.96 q-2.28 2.56 -2.28 6.7 t2.28 6.74 q1.4 1.6 3.6 2.24 q0.44 0.12 0.74 0.5 t0.3 0.82 l0 3.16 q0 0.68 -0.52 1.08 q-0.36 0.32 -0.92 0.32 l-0.28 0 q-4.28 -0.92 -7.24 -4.16 q-3.8 -4.28 -3.8 -10.68 t3.8 -10.68 q2.96 -3.28 7.24 -4.12 q0.64 -0.16 1.2 0.28 z M57.32 10 q0.68 0 1.16 0.6 q0.4 0.68 0.12 1.32 l-10.76 26.56 q-0.16 0.4 -0.52 0.64 t-0.76 0.24 l-3.44 0 q-0.44 0 -0.78 -0.24 t-0.54 -0.64 l-10.76 -26.56 q-0.28 -0.72 0.16 -1.32 q0.2 -0.28 0.5 -0.44 t0.66 -0.16 l3.28 0 q0.4 0 0.76 0.24 t0.52 0.64 l7.92 19.88 l7.88 -19.88 q0.2 -0.4 0.54 -0.64 t0.78 -0.24 l3.28 0 z M91.60000000000001 24.36 q2.08 1.28 3.04 3.68 q0.56 1.28 0.56 3.16 q0 2.92 -1.56 4.9 t-4.56 2.94 q-1.88 0.64 -4.44 0.64 l-12.76 0 q-0.56 0 -0.98 -0.42 t-0.42 -0.98 l0 -2.88 q0 -0.6 0.42 -1.02 t0.98 -0.42 l13.08 0 q2.32 0 3.44 -0.84 q0.96 -0.8 0.96 -2.18 t-1 -2.26 q-1.24 -1.08 -3.72 -1.08 l-12.76 0 q-0.56 0 -0.98 -0.42 t-0.42 -1.02 l0 -2.76 q0 -0.56 0.42 -0.98 t0.98 -0.42 l12.04 0 q1.72 0 2.68 -0.6 q0.68 -0.4 1.08 -1.16 q0.28 -0.56 0.28 -1.3 t-0.2 -1.34 q-0.16 -0.48 -0.56 -0.88 q-0.88 -1 -2.92 -1 l-12.4 0 q-0.56 0 -0.98 -0.42 t-0.42 -1.02 l0 -2.88 q0 -0.56 0.42 -0.98 t0.98 -0.42 l12.04 0 q4.96 0 7.64 2.8 q2.28 2.28 2.28 5.72 q0 3.68 -2.24 5.84 z M123.76 10 q0.56 0 0.98 0.42 t0.42 0.98 l0 15.12 q0 5.84 -3.56 9.5 t-9.14 3.66 t-9.14 -3.66 t-3.56 -9.5 l0 -15.12 q0 -0.56 0.42 -0.98 t0.98 -0.42 l3 0 q0.56 0 0.98 0.42 t0.42 0.98 l0 15.2 q0 3.72 2.12 5.68 q1.8 1.68 4.76 1.68 t4.8 -1.68 q2.12 -2 2.12 -5.68 l0 -15.2 q0 -0.56 0.4 -0.98 t0.96 -0.42 l3.04 0 z M135.72 10 q0.56 0 0.98 0.42 t0.42 0.98 l0 26.56 q0 0.56 -0.42 0.98 t-0.98 0.42 l-3 0 q-0.56 0 -0.98 -0.42 t-0.42 -0.98 l0 -26.56 q0 -0.56 0.42 -0.98 t0.98 -0.42 l3 0 z M162.48000000000002 33.68 q0.6 0 1 0.42 t0.4 0.98 l0 2.88 q0 0.56 -0.4 0.98 t-1 0.42 l-17.48 0 q-0.56 0 -0.98 -0.42 t-0.42 -0.98 l0 -26.56 q0 -0.56 0.42 -0.98 t0.98 -0.42 l3 0 q0.56 0 0.98 0.42 t0.42 0.98 l0 22.28 l13.08 0 z M185.44 11 q2.48 1.04 4.36 2.96 q4.16 4.24 4.16 10.72 t-4.16 10.72 q-1.88 1.92 -4.36 2.96 q-2.4 1 -5.08 1 l-11.2 0 q-0.56 0 -0.98 -0.42 t-0.42 -0.98 l0 -26.56 q0 -0.56 0.42 -0.98 t0.98 -0.42 l11.2 0 q2.6 0 5.08 1 z M173.56 15.64 l0 18.08 l6.68 0 q3.52 0 5.72 -2.58 t2.2 -6.46 t-2.2 -6.46 t-5.72 -2.58 l-6.68 0 z M219.72 10 q0.6 0 1 0.42 t0.4 0.98 l0 2.88 q0 0.56 -0.4 0.98 t-1 0.42 l-15.12 0 l0 6.12 l13.36 0 q0.6 0 1 0.42 t0.4 0.98 l0 2.92 q0 0.56 -0.4 0.98 t-1 0.42 l-13.36 0 l0 6.16 l15.12 0 q0.6 0 1 0.42 t0.4 0.98 l0 2.88 q0 0.56 -0.4 0.98 t-1 0.42 l-19.52 0 q-0.56 0 -0.98 -0.42 t-0.42 -0.98 l0 -26.56 q0 -0.56 0.42 -0.98 t0.98 -0.42 l19.52 0 z M244.8 28.04 l5.96 9.16 q0.2 0.32 0.22 0.72 t-0.16 0.72 t-0.52 0.52 t-0.7 0.2 l-3.6 0 q-0.36 0 -0.68 -0.18 t-0.48 -0.46 l-6 -9.56 l-7.08 0 l0 8.8 q0 0.56 -0.42 0.98 t-0.98 0.42 l-3 0 q-0.56 0 -0.98 -0.42 t-0.42 -0.98 l0 -26.56 q0 -0.56 0.42 -0.98 t0.98 -0.42 l12.72 0 q4.6 0 7.46 2.62 t2.86 7.1 q0 2.88 -1.26 4.94 t-3.7 3.1 q-0.16 0.08 -0.52 0.24 z M231.76 15.64 l0 7.88 l7.8 0 q3.44 0 4.68 -1.96 q0.4 -0.72 0.4 -1.84 q0 -1.88 -1.24 -2.96 q-1.36 -1.12 -3.68 -1.12 l-7.96 0 z"/></g></svg>