<svg width="429" height="57.93752815673546" viewBox="0 0 402.86464370149906 54.40788260561492" class="looka-1j8o68f"><defs id="SvgjsDefs13397"></defs><g id="SvgjsG13398" featurekey="nameLeftFeature-0" transform="matrix(1.736921558948804,0,0,1.736921558948804,-3.171793065722432,5.1111650098219705)" fill="#ffffff"><path d="M7.6953 5.888999999999999 c2.7637 0 4.4824 2.0508 4.4824 4.5605 c0 2.5684 -1.7188 4.4922 -4.4824 4.4922 l-2.9395 0 l0 5.0586 l-2.9297 0 l0 -14.111 l5.8691 0 z M7.207 12.4902 c1.4648 0 2.1484 -0.81055 2.1484 -2.0801 c0 -1.2207 -0.68359 -2.0703 -2.1484 -2.0703 l-2.4512 0 l0 4.1504 l2.4512 0 z M24.013628125 20 l-3.6719 -6.2109 l-0.84961 0 l0 6.2109 l-2.9297 0 l0 -14.111 l5.1172 0 c3.1934 0 4.541 1.8848 4.541 4.2188 c0 1.8945 -1.0742 3.125 -2.9883 3.5352 l4.248 6.3574 l-3.4668 0 z M19.492228125 8.32 l0 3.3691 l1.7285 0 c1.5625 0 2.1973 -0.66406 2.1973 -1.6797 c0 -1.0059 -0.63477 -1.6895 -2.1973 -1.6895 l-1.7285 0 z M37.8027625 20.19531 c-4.1504 0 -7.2168 -2.832 -7.2168 -7.2559 c0 -4.4336 3.0664 -7.2461 7.2168 -7.2461 c4.1406 0 7.207 2.8125 7.207 7.2461 c0 4.4238 -3.0664 7.2559 -7.207 7.2559 z M37.8027625 17.5098 c2.4316 0 4.2969 -1.709 4.2969 -4.5703 c0 -2.8516 -1.8652 -4.5508 -4.2969 -4.5508 s-4.2969 1.6992 -4.2969 4.5508 c0 2.8613 1.8652 4.5703 4.2969 4.5703 z M57.948734375 8.467 l-5.3711 0 l0 3.2031 l4.6387 0 l0 2.5488 l-4.6387 0 l0 5.7813 l-2.9492 0 l0 -14.111 l8.3203 0 l0 2.5781 z M62.373075 20 l0 -14.111 l2.9297 0 l0 14.111 l-2.9297 0 z M73.79886875 17.4121 l4.4238 0 l0 2.5879 l-7.3535 0 l0 -14.111 l2.9297 0 l0 11.523 z M90.566640625 8.467 l-5.2344 0 l0 3.2031 l4.6387 0 l0 2.5488 l-4.6387 0 l0 3.1934 l5.2344 0 l0 2.5879 l-8.1836 0 l0 -14.111 l8.1836 0 l0 2.5781 z"></path></g><g id="SvgjsG13399" featurekey="inlineSymbolFeature-0" transform="matrix(1.7002463314254663,0,0,1.7002463314254663,174,0)" fill="#ffffff"><g xmlns="http://www.w3.org/2000/svg"><g><g><path d="M6.75,19.402H5.415v1.991H6.75c0.536,0,0.96-0.472,0.96-0.968C7.709,19.866,7.286,19.402,6.75,19.402z"></path><path d="M12.123,19.442h-1.327v3.582h1.327C14.282,23.024,14.377,19.442,12.123,19.442z"></path><path d="M23,15H1c-0.55,0-1,0.45-1,1v10c0,0.55,0.45,1,1,1h22c0.551,0,1-0.45,1-1V16C24,15.45,23.551,15,23,15z M6.75,22.393     H5.415v1.056C5.415,23.801,5.191,24,4.903,24c-0.264,0-0.543-0.199-0.543-0.552v-4.501c0-0.264,0.208-0.553,0.543-0.553H6.75     c1.04,0,1.976,0.696,1.976,2.031C8.725,21.689,7.79,22.393,6.75,22.393z M12.195,24h-1.903c-0.264,0-0.552-0.145-0.552-0.496     v-4.541c0-0.288,0.288-0.496,0.552-0.496h1.831C15.777,18.467,15.697,24,12.195,24z M19.32,19.506h-2.328v1.271h2.039     c0.289,0,0.576,0.288,0.576,0.568c0,0.264-0.287,0.479-0.576,0.479h-2.039v1.679c0,0.28-0.199,0.496-0.479,0.496     c-0.352,0-0.568-0.216-0.568-0.496v-4.541c0-0.288,0.217-0.496,0.568-0.496h2.807c0.352,0,0.559,0.208,0.559,0.496     C19.879,19.219,19.672,19.506,19.32,19.506z"></path></g><path d="M27,7.586L20.414,1C19.836,0.42,18.82,0,18,0H7C5.346,0,4,1.346,4,3v10c0,0.553,0.447,1,1,1s1-0.447,1-1V3    c0-0.551,0.448-1,1-1h9c1.105,0,2,0.896,2,2v3.75C18,8.988,19.014,10,20.25,10H24c1.105,0,2,0.896,2,2v17c0,0.551-0.447,1-1,1H7    c-0.552,0-1-0.449-1-1c0-0.553-0.447-1-1-1s-1,0.447-1,1c0,1.654,1.346,3,3,3h18c1.654,0,3-1.346,3-3V10    C28,9.181,27.58,8.165,27,7.586z"></path></g></g></g><g id="SvgjsG13400" featurekey="nameRightFeature-0" transform="matrix(1.7606444028599113,0,0,1.7606444028599113,226.2502589390603,4.63207398066743)" fill="#ffffff"><path d="M16.523440625 12.5488 c1.5918 0.43945 2.6563 1.4844 2.6563 3.4961 c0 2.3828 -1.4453 3.9551 -4.4238 3.9551 l-5.8105 0 l0 -14.111 l4.5703 0 c3.0469 0 4.6484 1.4648 4.6484 3.8672 c0 1.2402 -0.53711 2.2559 -1.6406 2.793 z M13.544940624999999 8.32 l-1.7773 0 l0 3.3203 l1.9043 0 c1.25 0 1.7969 -0.74219 1.7969 -1.6992 c0 -0.9375 -0.61523 -1.6211 -1.9238 -1.6211 z M14.208940625 17.4902 c1.582 0 2.1289 -0.84961 2.1289 -1.7676 c0 -0.9375 -0.53711 -1.8262 -2.1875 -1.8262 l-2.3828 0 l0 3.5938 l2.4414 0 z M28.935565625 20.19531 c-3.0957 0 -5.5176 -1.582 -5.5176 -5.1367 l0 -9.1699 l2.9297 0 l0 8.7695 c0 2.1484 1.1426 2.9492 2.5879 2.9492 c1.4551 0 2.6074 -0.81055 2.6074 -2.9492 l0 -8.7695 l2.9297 0 l0 9.1699 c0 3.5547 -2.4316 5.1367 -5.5371 5.1367 z M39.7558875 20 l0 -14.111 l2.9297 0 l0 14.111 l-2.9297 0 z M51.18168125 17.4121 l4.4238 0 l0 2.5879 l-7.3535 0 l0 -14.111 l2.9297 0 l0 11.523 z M59.765653125 20 l0 -14.111 l5.1074 0 c4.502 0 6.7285 2.832 6.7285 7.0508 c0 4.2285 -2.2266 7.0605 -6.7285 7.0605 l-5.1074 0 z M62.695353125 17.4121 l2.0313 0 c2.5977 0 3.7891 -1.6211 3.7891 -4.4727 s-1.1914 -4.4727 -3.7891 -4.4727 l-2.0313 0 l0 8.9453 z M84.453359375 8.467 l-5.2344 0 l0 3.2031 l4.6387 0 l0 2.5488 l-4.6387 0 l0 3.1934 l5.2344 0 l0 2.5879 l-8.1836 0 l0 -14.111 l8.1836 0 l0 2.5781 z M96.845659375 20 l-3.6719 -6.2109 l-0.84961 0 l0 6.2109 l-2.9297 0 l0 -14.111 l5.1172 0 c3.1934 0 4.541 1.8848 4.541 4.2188 c0 1.8945 -1.0742 3.125 -2.9883 3.5352 l4.248 6.3574 l-3.4668 0 z M92.324259375 8.32 l0 3.3691 l1.7285 0 c1.5625 0 2.1973 -0.66406 2.1973 -1.6797 c0 -1.0059 -0.63477 -1.6895 -2.1973 -1.6895 l-1.7285 0 z"></path></g></svg>